<svg xmlns="http://www.w3.org/2000/svg" xmlns:xlink="http://www.w3.org/1999/xlink" version="1.2" baseProfile="tiny" x="0px" y="0px" viewBox="0 0 730 271" xml:space="preserve" width="730px" height="271px"><g><path fill="none" stroke="#ffffff" stroke-width="2" stroke-miterlimit="10" d="M235.954,83.897c0,0-10.788-4.064-21.788-2.897   c0,0-0.5,3.667-3.5,7.167"/><g><g><path fill="none" stroke="#ffffff" stroke-width="6" stroke-miterlimit="10" d="M666,180.375c0,0-36.75-27.5-125-37.5     c0,0-21-4.875-25.125-5.5s-31.123-1.791-31.123-1.791S399.875,96.25,374.75,89.125S286.875,77.875,239.875,85     S101.25,114.875,77,122.625c0,0-33.625,4.875-42.25,8.25L30,130.5l-1.875,4.875L29.5,136.5c0,0-1.375,13.875-7.625,21.5     l1.625,5.125c0,0,0.25,5.75-6.125,12l2.875,15.25l-5.75,1.375l-1.25,5.375l4.625,6.375L21,205.75l5.25,14.75l10.125,5.5     l45.875,10.875c0,0-17.25-56.375,42.5-75.375c0,0,29.463-7.104,51.5,14.375c28.809,28.076,13.745,67.423,13.745,67.423     l295.88,2.452c0,0-19.398-41.061,13.709-71.583c23.229-21.415,60.656-14.382,76.5,2.166c11.25,11.75,24.291,26.042,14.041,67.917     c0,0,33-1.5,43.375-3.75s27.125,0.375,29.625-4.25s1.169-17.957-0.456-21.832C662.669,214.418,669.375,197.625,666,180.375z      M330.25,135.25c-25.75-0.625-120.625-3-120.625-3s-25.25-11.125-20.75-16.875c5.749-7.346,48.125-16.5,48.125-16.5     c17.125-2.625,30.375-4.875,80.5-5.5c49.906-0.622,132.375,48.125,132.375,48.125S356,135.875,330.25,135.25z"/></g></g><path fill="none" stroke="#ffffff" stroke-width="2" stroke-miterlimit="10" d="M473.375,207.422c0,0,10.896-52.711,62.23-52.711   c43.395,0,65.145,32.914,64.52,63.164"/><path fill="none" stroke="#ffffff" stroke-width="2" stroke-miterlimit="10" d="M195.061,191.796   c-8.718-20.47-28.623-37.085-59.455-37.085c-16.948,0-29.488,5.746-38.685,13.443"/><path fill="none" stroke="#ffffff" stroke-width="2" stroke-miterlimit="10" d="M570.5,170.5c0,0,40.666-0.166,83.834,9.334   c0,0,5-3.334,6.166-3.167"/><path fill="none" stroke="#ffffff" stroke-width="2" stroke-miterlimit="10" d="M634.334,240.167c0,0,25-34.999,13.5-40.333   s-24.834-11-24.834-11l-20.166-16.5"/><path fill="none" stroke="#ffffff" stroke-width="2" stroke-miterlimit="10" d="M648.419,200.251c0,0,8.416,2.25,12.581,15.583"/><path fill="none" stroke="#ffffff" stroke-width="2" stroke-miterlimit="10" d="M653.752,179.918c0,0,1.082,14.334,0.832,16.25   s6.584,5.584,9.668,5.5"/><path fill="none" stroke="#ffffff" stroke-width="2" stroke-miterlimit="10" d="M654.334,196.668c0,0-22.082-4.834-25.332-5.167"/><path fill="none" stroke="#ffffff" stroke-width="2" stroke-miterlimit="10" d="M442.084,137.084c0,0,30.084-0.749,42.25,0.334"/><path fill="none" stroke="#ffffff" stroke-width="6" stroke-miterlimit="10" d="M456.668,143.251"/><path fill="none" stroke="#ffffff" stroke-width="2" stroke-miterlimit="10" d="M454.252,142.668c0,0,20.916,7.416,19.082,15.916   c-1.832,8.5-22,56.084-23.5,58.167c0,0-95.459-6.126-115.459-8.626s-34.25-4.625-70.125-24.375s-39.468-31.813-34.875-33.125   c1.75-0.5,7.125-0.75,12.75-0.25"/><path fill="none" stroke="#ffffff" stroke-width="2" stroke-miterlimit="10" d="M187.625,191.25l93.25,5.625   c0,0,4.375-1,5.625-2.125"/><path fill="none" stroke="#ffffff" stroke-width="2" stroke-miterlimit="10" d="M252.375,133.125c0,0-12.875,14.375-9.375,20   s14.75,24.375,21.25,30.625"/><path fill="none" stroke="#ffffff" stroke-width="2" stroke-miterlimit="10" d="M225.75,242c0,0,35-22.5,49.75-22.875   s109.875,4,127.125,8.25S445.75,241.25,454,244.625"/><path fill="none" stroke="#ffffff" stroke-width="2" stroke-miterlimit="10" d="M429.75,244.25c0,0-18.75-12-38.375-14.125   s-117.25-11.625-121.5-10"/><path fill="none" stroke="#ffffff" stroke-width="2" stroke-miterlimit="10" d="M50.125,128.25c0,0,48.875-3.875,70.25-4.25   s41.625-5.875,53.75-9.875s58.375-17,65.125-17.5"/><line fill="none" stroke="#ffffff" stroke-width="2" stroke-miterlimit="10" x1="210.6" y1="134.248" x2="165.1" y2="134.123"/><path fill="none" stroke="#ffffff" stroke-width="2" stroke-miterlimit="10" d="M204.25,150.75c0,0-35.75-21.5-71.625-20.5   s-48.75,1.5-48.75,1.5s-5.125,6.125-14,9.875S48,149,48.25,162.375s4,49.625,6.75,57.5s15.375,11.75,18.5,13"/><path fill="none" stroke="#ffffff" stroke-width="2" stroke-miterlimit="10" d="M30.625,136.375c0,0,3,0.25,13.125-1.5   s35.375-3,40.125-3.125"/><path fill="none" stroke="#ffffff" stroke-width="2" stroke-miterlimit="10" d="M29.125,142.25c0,0,2,8.875,7.625,8.875   s16.25-0.5,16.25-0.5"/><path fill="none" stroke="#ffffff" stroke-width="2" stroke-miterlimit="10" d="M23.875,162.625c0,0,16.625,0.875,18.625,1.375   s2.625,4.5,3.125,11.25S48,192.125,43.75,193.875S23,199.375,21.625,204.5"/><polyline fill="none" stroke="#ffffff" stroke-width="2" stroke-miterlimit="10" points="44.75,169.875 28.375,168.75    26.125,162.75  "/><line fill="none" stroke="#ffffff" stroke-width="2" stroke-miterlimit="10" x1="449.252" y1="216.751" x2="480.502" y2="218.938"/><path fill="none" stroke="#ffffff" stroke-width="2" stroke-miterlimit="10" d="M301.833,82.667c0,0,41.834,1.667,74.667,15.167   s81.633,38.865,81.633,38.865"/><polyline fill="none" stroke="#ffffff" stroke-width="2" stroke-miterlimit="10" points="228.833,101.334 240.5,132.334    249.666,133.334 236.666,99.834 245.166,98 261.5,133  "/><path fill="none" stroke="#ffffff" stroke-width="2" stroke-miterlimit="10" d="M504.418,142.581l-17.25-1.167   c0,0-3.082-0.332-4.416,1.584s-2.834,3.918-2.834,3.918s-0.832,3.418,2.334,5.084s10.582,5.666,10.582,5.666   s4.75,2.667,8.834-1.833s7.416-9.25,7.416-9.25S511.668,143.248,504.418,142.581z"/><path fill="none" stroke="#ffffff" stroke-width="2" stroke-miterlimit="10" d="M473.168,160.333c0,0-196.667-10.166-219.667-9.833   "/><path fill="none" stroke="#ffffff" stroke-width="2" stroke-miterlimit="10" d="M457.834,244.001c0,0-47.499-24.834-80.666-27.167   s-106.167-7.833-110.667-7.833"/><path fill="none" stroke="#ffffff" stroke-width="1.8681" stroke-miterlimit="10" d="M403,147.375c0,0,15.625,7.5,25.5-0.625   c0,0-7.875-9.875-15.125-10.375s-14.875-0.125-22.25-6l-5.25-0.5c0,0,0.625,16.5,13.625,11.5   C399.5,141.375,402.875,146.875,403,147.375z"/><path fill="none" stroke="#ffffff" stroke-width="1.8681" stroke-miterlimit="10" d="M422.5,141.5c0,0-10.25,4.25-22.5,1.125"/><path fill="none" stroke="#ffffff" stroke-width="1.8681" stroke-miterlimit="10" d="M416.375,137.125c0,0-4.5-2.75-3.25-8.75   c0,0-5.625-7-18.625-6.125c0,0-7,3.75-8.625,7.25"/></g><g><circle fill="none" stroke="#ffffff" stroke-width="6" stroke-miterlimit="10" cx="137.038" cy="215.536" r="46.556"/><circle fill="none" stroke="#ffffff" stroke-width="2" stroke-miterlimit="10" cx="137.038" cy="215.536" r="39.747"/><circle fill="none" stroke="#ffffff" stroke-width="2" stroke-miterlimit="10" cx="137.038" cy="215.537" r="4.395"/><path fill="none" stroke="#ffffff" stroke-width="2" stroke-miterlimit="10" d="M133.062,206.037c0,0-2.961-18.918-3.982-25.744   c-5.97,1.523-12.975,4.979-18.815,11.012l8.891,7.938l8.908,11.945c0,0,0.812-1.938,2.34-3.422   C131.014,207.173,133.062,206.037,133.062,206.037z"/><path fill="none" stroke="#ffffff" stroke-width="2" stroke-miterlimit="10" d="M107.861,194.037l8.426,6.738l1.938,4.625   l-13.14-6.426C105.086,198.975,106.611,195.537,107.861,194.037z"/><path fill="none" stroke="#ffffff" stroke-width="2" stroke-miterlimit="10" d="M103.611,202.238l16.812,7.75l1.688,2.5   l-20.563-3.813C101.549,208.676,102.111,206.051,103.611,202.238z"/><path fill="none" stroke="#ffffff" stroke-width="2" stroke-miterlimit="10" d="M145.057,209.014c0,0,17.168-8.375,23.38-11.383   c-3.231-5.244-8.604-10.99-16.104-14.77l-4.932,10.851l-8.75,12.062c0,0,2.091,0.199,3.962,1.215   C143.362,207.396,145.057,209.014,145.057,209.014z"/><path fill="none" stroke="#ffffff" stroke-width="2" stroke-miterlimit="10" d="M148.884,181.316l-3.924,10.05l-3.839,3.228   l2.224-14.457C143.344,180.137,147.08,180.57,148.884,181.316z"/><path fill="none" stroke="#ffffff" stroke-width="2" stroke-miterlimit="10" d="M139.635,179.54l-2.393,18.358l-1.884,2.354   l-2.484-20.767C132.875,179.486,135.549,179.245,139.635,179.54z"/><path fill="none" stroke="#ffffff" stroke-width="2" stroke-miterlimit="10" d="M145.979,220.854c0,0,13.004,13.994,17.746,19.01   c4.024-4.664,8.041-11.674,9.382-19.965l-11.833-1.428l-14.14-4.703c0,0,0.441,2.055,0.037,4.146   C147.01,218.749,145.979,220.854,145.979,220.854z"/><path fill="none" stroke="#ffffff" stroke-width="2" stroke-miterlimit="10" d="M173.439,216.541l-10.768-0.707l-4.232-2.686   l14.452-2.246C172.892,210.902,173.605,214.598,173.439,216.541z"/><path fill="none" stroke="#ffffff" stroke-width="2" stroke-miterlimit="10" d="M172.342,207.188l-18.226,3.26l-2.813-1.086   l19.049-8.633C170.352,200.729,171.391,203.203,172.342,207.188z"/><path fill="none" stroke="#ffffff" stroke-width="2" stroke-miterlimit="10" d="M134.516,225.9c0,0-9.189,16.582-12.564,22.604   c5.65,2.454,13.24,4.2,21.554,3.01l-2.159-11.719l0.278-14.898c0,0-1.829,1.033-3.945,1.269   C136.831,226.26,134.516,225.9,134.516,225.9z"/><path fill="none" stroke="#ffffff" stroke-width="2" stroke-miterlimit="10" d="M146.919,250.211l-2.527-10.488l1.302-4.842   l6.445,13.131C152.138,248.012,148.825,249.792,146.919,250.211z"/><path fill="none" stroke="#ffffff" stroke-width="2" stroke-miterlimit="10" d="M155.522,246.379l-8.539-16.427l0.199-3.011   l13.914,15.613C161.097,242.557,159.042,244.284,155.522,246.379z"/><path fill="none" stroke="#ffffff" stroke-width="2" stroke-miterlimit="10" d="M126.722,216.479c0,0-18.775-3.224-25.571-4.437   c-0.464,6.144,0.475,13.869,4.327,21.332l10.36-5.886l14.166-4.625c0,0-1.575-1.389-2.492-3.313   C127.143,218.784,126.722,216.479,126.722,216.479z"/><path fill="none" stroke="#ffffff" stroke-width="2" stroke-miterlimit="10" d="M107.313,236.009l9.133-5.743l5.004-0.313   l-10.386,10.299C111.064,240.252,108.319,237.682,107.313,236.009z"/><path fill="none" stroke="#ffffff" stroke-width="2" stroke-miterlimit="10" d="M113.492,242.839l12.842-13.336l2.916-0.771   l-10.354,18.17C118.896,246.9,116.602,245.506,113.492,242.839z"/></g><g><circle fill="none" stroke="#ffffff" stroke-width="6" stroke-miterlimit="10" cx="537.038" cy="215.536" r="46.556"/><circle fill="none" stroke="#ffffff" stroke-width="2" stroke-miterlimit="10" cx="537.038" cy="215.536" r="39.747"/><circle fill="none" stroke="#ffffff" stroke-width="2" stroke-miterlimit="10" cx="537.038" cy="215.537" r="4.395"/><path fill="none" stroke="#ffffff" stroke-width="2" stroke-miterlimit="10" d="M533.062,206.037c0,0-2.961-18.918-3.982-25.744   c-5.97,1.523-12.975,4.979-18.815,11.012l8.891,7.938l8.908,11.945c0,0,0.813-1.938,2.34-3.422   C531.014,207.173,533.062,206.037,533.062,206.037z"/><path fill="none" stroke="#ffffff" stroke-width="2" stroke-miterlimit="10" d="M507.861,194.037l8.426,6.738l1.938,4.625   l-13.14-6.426C505.087,198.975,506.611,195.537,507.861,194.037z"/><path fill="none" stroke="#ffffff" stroke-width="2" stroke-miterlimit="10" d="M503.611,202.238l16.813,7.75l1.688,2.5   l-20.562-3.813C501.55,208.676,502.111,206.051,503.611,202.238z"/><path fill="none" stroke="#ffffff" stroke-width="2" stroke-miterlimit="10" d="M545.057,209.014c0,0,17.168-8.375,23.38-11.383   c-3.231-5.244-8.604-10.99-16.104-14.77l-4.933,10.851l-8.75,12.062c0,0,2.091,0.199,3.962,1.215   C543.362,207.396,545.057,209.014,545.057,209.014z"/><path fill="none" stroke="#ffffff" stroke-width="2" stroke-miterlimit="10" d="M548.885,181.316l-3.924,10.05l-3.84,3.228   l2.224-14.457C543.344,180.137,547.08,180.57,548.885,181.316z"/><path fill="none" stroke="#ffffff" stroke-width="2" stroke-miterlimit="10" d="M539.635,179.54l-2.393,18.358l-1.884,2.354   l-2.484-20.767C532.875,179.486,535.55,179.245,539.635,179.54z"/><path fill="none" stroke="#ffffff" stroke-width="2" stroke-miterlimit="10" d="M545.979,220.854c0,0,13.004,13.994,17.746,19.01   c4.024-4.664,8.041-11.674,9.382-19.965l-11.833-1.428l-14.14-4.703c0,0,0.441,2.055,0.038,4.146   C547.01,218.749,545.979,220.854,545.979,220.854z"/><path fill="none" stroke="#ffffff" stroke-width="2" stroke-miterlimit="10" d="M573.439,216.541l-10.767-0.707l-4.233-2.686   l14.452-2.246C572.892,210.902,573.605,214.598,573.439,216.541z"/><path fill="none" stroke="#ffffff" stroke-width="2" stroke-miterlimit="10" d="M572.343,207.188l-18.227,3.26l-2.813-1.086   l19.049-8.633C570.352,200.729,571.391,203.203,572.343,207.188z"/><path fill="none" stroke="#ffffff" stroke-width="2" stroke-miterlimit="10" d="M534.516,225.9c0,0-9.189,16.582-12.564,22.604   c5.65,2.454,13.24,4.2,21.555,3.01l-2.16-11.719l0.278-14.898c0,0-1.828,1.033-3.945,1.269   C536.831,226.26,534.516,225.9,534.516,225.9z"/><path fill="none" stroke="#ffffff" stroke-width="2" stroke-miterlimit="10" d="M546.92,250.211l-2.528-10.488l1.302-4.842   l6.445,13.131C552.138,248.012,548.825,249.792,546.92,250.211z"/><path fill="none" stroke="#ffffff" stroke-width="2" stroke-miterlimit="10" d="M555.522,246.379l-8.539-16.427l0.199-3.011   l13.914,15.613C561.097,242.557,559.043,244.284,555.522,246.379z"/><path fill="none" stroke="#ffffff" stroke-width="2" stroke-miterlimit="10" d="M526.722,216.479c0,0-18.775-3.224-25.571-4.437   c-0.464,6.144,0.476,13.869,4.327,21.332l10.361-5.886l14.166-4.625c0,0-1.576-1.389-2.493-3.313   C527.143,218.784,526.722,216.479,526.722,216.479z"/><path fill="none" stroke="#ffffff" stroke-width="2" stroke-miterlimit="10" d="M507.313,236.009l9.133-5.743l5.004-0.313   l-10.386,10.299C511.064,240.252,508.319,237.682,507.313,236.009z"/><path fill="none" stroke="#ffffff" stroke-width="2" stroke-miterlimit="10" d="M513.492,242.839l12.842-13.336l2.916-0.771   l-10.354,18.17C518.896,246.9,516.602,245.506,513.492,242.839z"/></g></svg>